<?xml version="1.0" encoding="UTF-8" standalone="no"?>
<!DOCTYPE svg PUBLIC "-//W3C//DTD SVG 1.1//EN" "http://www.w3.org/Graphics/SVG/1.1/DTD/svg11.dtd">
<svg width="100%" height="100%" viewBox="0 0 504 504" version="1.1" xmlns="http://www.w3.org/2000/svg" xmlns:xlink="http://www.w3.org/1999/xlink" xml:space="preserve" xmlns:serif="http://www.serif.com/" style="fill-rule:evenodd;clip-rule:evenodd;stroke-linecap:round;stroke-linejoin:round;stroke-miterlimit:10;">
    <g>
        <g transform="matrix(0.961585,-0.274507,-0.274507,-0.961585,75.2112,541.167)">
            <path d="M77.761,250.14L263.039,250.14" style="fill:none;fill-rule:nonzero;stroke:#C6371E;stroke-width:6px;"/>
        </g>
        <g transform="matrix(0.998558,-0.0536889,-0.0536889,-0.998558,15.7008,523.049)">
            <path d="M273.462,282.705L451.338,282.705" style="fill:none;fill-rule:nonzero;stroke:#C6371E;stroke-width:6px;"/>
        </g>
        <g transform="matrix(0,1,1,0,-148.34,206.86)">
            <path d="M74.4,220.04C72.92,220.04 71.7,221.26 71.7,222.74C71.7,224.23 72.92,225.44 74.4,225.44C75.89,225.44 77.1,224.23 77.1,222.74C77.1,221.26 75.89,220.04 74.4,220.04" style="fill:none;fill-rule:nonzero;stroke:#C6371E;stroke-width:6px;"/>
        </g>
        <g transform="matrix(0,1,1,0,-11.15,-39.95)">
            <path d="M266.4,274.85C264.92,274.85 263.7,276.06 263.7,277.55C263.7,279.03 264.92,280.25 266.4,280.25C267.89,280.25 269.1,279.03 269.1,277.55C269.1,276.06 267.89,274.85 266.4,274.85" style="fill:none;fill-rule:nonzero;stroke:#C6371E;stroke-width:6px;"/>
        </g>
        <g transform="matrix(0,1,1,0,170.53,-242.27)">
            <path d="M458.4,285.17C456.92,285.17 455.7,286.38 455.7,287.87C455.7,289.35 456.92,290.57 458.4,290.57C459.89,290.57 461.1,289.35 461.1,287.87C461.1,286.38 459.89,285.17 458.4,285.17" style="fill:none;fill-rule:nonzero;stroke:#C6371E;stroke-width:6px;"/>
        </g>
    </g>
    <g>
        <g transform="matrix(0.819723,-0.57276,-0.57276,-0.819723,169.656,557.868)">
            <path d="M60.485,242.575L280.315,242.575" style="fill:none;fill-rule:nonzero;stroke:#777;stroke-width:1px;"/>
        </g>
        <g transform="matrix(0.981135,0.193326,0.193326,-0.981135,-49.3697,428.454)">
            <path d="M271.75,290.735L453.05,290.735" style="fill:none;fill-rule:nonzero;stroke:#777;stroke-width:1px;"/>
        </g>
        <g transform="matrix(0,1,1,0,-101.09,254.11)">
            <path d="M74.4,172.79C72.91,172.79 71.7,174.01 71.7,175.49C71.7,176.98 72.91,178.19 74.4,178.19C75.88,178.19 77.1,176.98 77.1,175.49C77.1,174.01 75.88,172.79 74.4,172.79" style="fill:none;fill-rule:nonzero;stroke:#777;stroke-width:1px;"/>
        </g>
        <g transform="matrix(0,1,1,0,-43.25,-72.05)">
            <path d="M266.4,306.95C264.91,306.95 263.7,308.16 263.7,309.65C263.7,311.13 264.91,312.35 266.4,312.35C267.88,312.35 269.1,311.13 269.1,309.65C269.1,308.16 267.88,306.95 266.4,306.95" style="fill:none;fill-rule:nonzero;stroke:#777;stroke-width:1px;"/>
        </g>
        <g transform="matrix(0,1,1,0,186.59,-226.21)">
            <path d="M458.4,269.11C456.91,269.11 455.7,270.32 455.7,271.81C455.7,273.29 456.91,274.51 458.4,274.51C459.88,274.51 461.1,273.29 461.1,271.81C461.1,270.32 459.88,269.11 458.4,269.11" style="fill:none;fill-rule:nonzero;stroke:#777;stroke-width:1px;"/>
        </g>
        <g transform="matrix(0.991479,-0.130267,-0.130267,-0.991479,29.6906,524.35)">
            <path d="M80.776,216.775L260.024,216.775" style="fill:none;fill-rule:nonzero;stroke:#777;stroke-width:1px;"/>
        </g>
        <g transform="matrix(0.973936,-0.226821,-0.226821,-0.973936,66.5466,579.639)">
            <path d="M271.029,251.745L453.771,251.745" style="fill:none;fill-rule:nonzero;stroke:#777;stroke-width:1px;"/>
        </g>
        <g transform="matrix(0,1,1,0,-129.76,225.44)">
            <path d="M74.4,201.46C72.91,201.46 71.7,202.68 71.7,204.16C71.7,205.65 72.91,206.86 74.4,206.86C75.88,206.86 77.1,205.65 77.1,204.16C77.1,202.68 75.88,201.46 74.4,201.46" style="fill:none;fill-rule:nonzero;stroke:#777;stroke-width:1px;"/>
        </g>
        <g transform="matrix(0,1,1,0,37.01,8.21)">
            <path d="M266.4,226.69C264.92,226.69 263.7,227.9 263.7,229.39C263.7,230.87 264.92,232.09 266.4,232.09C267.89,232.09 269.1,230.87 269.1,229.39C269.1,227.9 267.89,226.69 266.4,226.69" style="fill:none;fill-rule:nonzero;stroke:#777;stroke-width:1px;"/>
        </g>
        <g transform="matrix(0,1,1,0,184.29,-228.51)">
            <path d="M458.4,271.41C456.92,271.41 455.7,272.62 455.7,274.11C455.7,275.59 456.92,276.81 458.4,276.81C459.89,276.81 461.1,275.59 461.1,274.11C461.1,272.62 459.89,271.41 458.4,271.41" style="fill:none;fill-rule:nonzero;stroke:#777;stroke-width:1px;"/>
        </g>
        <g transform="matrix(0.856284,-0.516506,-0.516506,-0.856284,192.423,545.285)">
            <path d="M65.493,325.135L275.307,325.135" style="fill:none;fill-rule:nonzero;stroke:#777;stroke-width:1px;"/>
        </g>
        <g transform="matrix(0.985338,0.170614,0.170614,-0.985338,-57.202,436.797)">
            <path d="M272.167,366.415L452.633,366.415" style="fill:none;fill-rule:nonzero;stroke:#777;stroke-width:1px;"/>
        </g>
        <g transform="matrix(0,1,1,0,-192.83,162.37)">
            <path d="M74.4,264.53C72.92,264.53 71.7,265.75 71.7,267.23C71.7,268.72 72.92,269.93 74.4,269.93C75.89,269.93 77.1,268.72 77.1,267.23C77.1,265.75 75.89,264.53 74.4,264.53" style="fill:none;fill-rule:nonzero;stroke:#777;stroke-width:1px;"/>
        </g>
        <g transform="matrix(0,1,1,0,-116.64,-145.44)">
            <path d="M266.4,380.34C264.91,380.34 263.7,381.55 263.7,383.04C263.7,384.52 264.91,385.74 266.4,385.74C267.88,385.74 269.1,384.52 269.1,383.04C269.1,381.55 267.88,380.34 266.4,380.34" style="fill:none;fill-rule:nonzero;stroke:#777;stroke-width:1px;"/>
        </g>
        <g transform="matrix(0,1,1,0,108.61,-304.19)">
            <path d="M458.4,347.09C456.92,347.09 455.7,348.3 455.7,349.79C455.7,351.27 456.92,352.49 458.4,352.49C459.89,352.49 461.1,351.27 461.1,349.79C461.1,348.3 459.89,347.09 458.4,347.09" style="fill:none;fill-rule:nonzero;stroke:#777;stroke-width:1px;"/>
        </g>
        <g transform="matrix(0.999555,0.0298291,0.0298291,-0.999555,-8.01501,498.796)">
            <path d="M81.56,271.24L259.24,271.24" style="fill:none;fill-rule:nonzero;stroke:#777;stroke-width:1px;"/>
        </g>
        <g transform="matrix(0.98,-0.198997,-0.198997,-0.98,64.5333,570.359)">
            <path d="M271.645,287.87L453.155,287.87" style="fill:none;fill-rule:nonzero;stroke:#777;stroke-width:1px;"/>
        </g>
        <g transform="matrix(0,1,1,0,-199.71,155.49)">
            <path d="M74.4,271.41C72.92,271.41 71.7,272.63 71.7,274.11C71.7,275.6 72.92,276.81 74.4,276.81C75.89,276.81 77.1,275.6 77.1,274.11C77.1,272.63 75.89,271.41 74.4,271.41" style="fill:none;fill-rule:nonzero;stroke:#777;stroke-width:1px;"/>
        </g>
        <g transform="matrix(0,1,1,0,-1.97,-30.77)">
            <path d="M266.4,265.67C264.91,265.67 263.7,266.88 263.7,268.37C263.7,269.85 264.91,271.07 266.4,271.07C267.88,271.07 269.1,269.85 269.1,268.37C269.1,266.88 267.88,265.67 266.4,265.67" style="fill:none;fill-rule:nonzero;stroke:#777;stroke-width:1px;"/>
        </g>
        <g transform="matrix(0,1,1,0,151.04,-261.76)">
            <path d="M458.4,304.66C456.92,304.66 455.7,305.87 455.7,307.36C455.7,308.84 456.92,310.06 458.4,310.06C459.89,310.06 461.1,308.84 461.1,307.36C461.1,305.87 459.89,304.66 458.4,304.66" style="fill:none;fill-rule:nonzero;stroke:#777;stroke-width:1px;"/>
        </g>
        <g transform="matrix(0.891703,-0.452621,-0.452621,-0.891703,117.867,557.34)">
            <path d="M69.941,219.64L270.859,219.64" style="fill:none;fill-rule:nonzero;stroke:#777;stroke-width:1px;"/>
        </g>
        <g transform="matrix(0.998558,0.0536889,0.0536889,-0.998558,-13.609,484.164)">
            <path d="M273.462,263.215L451.338,263.215" style="fill:none;fill-rule:nonzero;stroke:#777;stroke-width:1px;"/>
        </g>
        <g transform="matrix(0,1,1,0,-96.51,258.69)">
            <path d="M74.4,168.21C72.92,168.21 71.7,169.43 71.7,170.91C71.7,172.4 72.92,173.61 74.4,173.61C75.89,173.61 77.1,172.4 77.1,170.91C77.1,169.43 75.89,168.21 74.4,168.21" style="fill:none;fill-rule:nonzero;stroke:#777;stroke-width:1px;"/>
        </g>
        <g transform="matrix(0,1,1,0,-1.97,-30.77)">
            <path d="M266.4,265.67C264.91,265.67 263.7,266.88 263.7,268.37C263.7,269.85 264.91,271.07 266.4,271.07C267.88,271.07 269.1,269.85 269.1,268.37C269.1,266.88 267.88,265.67 266.4,265.67" style="fill:none;fill-rule:nonzero;stroke:#777;stroke-width:1px;"/>
        </g>
        <g transform="matrix(0,1,1,0,200.35,-212.45)">
            <path d="M458.4,255.35C456.91,255.35 455.7,256.56 455.7,258.05C455.7,259.53 456.91,260.75 458.4,260.75C459.88,260.75 461.1,259.53 461.1,258.05C461.1,256.56 459.88,255.35 458.4,255.35" style="fill:none;fill-rule:nonzero;stroke:#777;stroke-width:1px;"/>
        </g>
    </g>
    <g>
        <g transform="matrix(0,-1,-1,0,318.24,303.84)">
            <path d="M-112.96,259.2L231.04,259.2" style="fill:none;fill-rule:nonzero;stroke:#777;stroke-width:0.75px;"/>
        </g>
        <g transform="matrix(-1,0,0,1,110.88,329.6)">
            <path d="M51.84,87.2L59.04,87.2" style="fill:none;fill-rule:nonzero;stroke:#777;stroke-width:0.75px;"/>
        </g>
        <g transform="matrix(-1,0,0,1,110.88,100.26)">
            <path d="M51.84,201.87L59.04,201.87" style="fill:none;fill-rule:nonzero;stroke:#777;stroke-width:0.75px;"/>
        </g>
        <g transform="matrix(-1,0,0,1,110.88,-129.06)">
            <path d="M51.84,316.53L59.04,316.53" style="fill:none;fill-rule:nonzero;stroke:#777;stroke-width:0.75px;"/>
        </g>
        <g transform="matrix(-1,0,0,1,110.88,-358.4)">
            <path d="M51.84,431.2L59.04,431.2" style="fill:none;fill-rule:nonzero;stroke:#777;stroke-width:0.75px;"/>
        </g>
        <g transform="matrix(0,-1,1,0,0,0)">
            <g transform="matrix(12,0,0,12,-413.466,41.76)">
            </g>
            <text fill="#777" x="-420.14px" y="41.76px" style="font-family:'Helvetica';font-size:12px;">0</text>
        </g>
        <g transform="matrix(0,-1,1,0,0,0)">
            <g transform="matrix(12,0,0,12,-298.796,41.76)">
            </g>
            <text fill="#777" x="-305.47px" y="41.76px" style="font-family:'Helvetica';font-size:12px;">5</text>
        </g>
        <g transform="matrix(0,-1,1,0,0,0)">
            <g transform="matrix(12,0,0,12,-180.794,41.76)">
            </g>
            <text fill="#777" x="-194.14px" y="41.76px" style="font-family:'Helvetica';font-size:12px;">10</text>
        </g>
        <g transform="matrix(0,-1,1,0,0,0)">
            <g transform="matrix(12,0,0,12,-66.1242,41.76)">
            </g>
            <text fill="#777" x="-79.47px" y="41.76px" style="font-family:'Helvetica';font-size:12px;">15</text>
        </g>
        <g transform="matrix(12,0,0,12,81.0758,456.48)">
        </g>
        <text fill="#777" x="67.73px" y="456.48px" style="font-family:'Helvetica';font-size:12px;">70</text>
        <g transform="matrix(12,0,0,12,276.408,456.48)">
        </g>
        <text fill="#777" x="256.39px" y="456.48px" style="font-family:'Helvetica';font-size:12px;">100</text>
        <g transform="matrix(12,0,0,12,468.408,456.48)">
        </g>
        <text fill="#777" x="448.39px" y="456.48px" style="font-family:'Helvetica';font-size:12px;">130</text>
        <g transform="matrix(1,0,0,1,0,-14.4)">
            <rect x="59.04" y="73.44" width="414.72" height="371.52" style="fill:none;stroke:#777;stroke-width:0.75px;"/>
        </g>
        <g transform="matrix(1,0,0,1,0,357.12)">
            <path d="M74.4,73.44L458.4,73.44" style="fill:none;fill-rule:nonzero;stroke:#777;stroke-width:0.75px;"/>
        </g>
        <g transform="matrix(0,1,1,0,4.56,359.76)">
            <path d="M70.8,69.84L78,69.84" style="fill:none;fill-rule:nonzero;stroke:#777;stroke-width:0.75px;"/>
        </g>
        <g transform="matrix(0,1,1,0,196.56,167.76)">
            <path d="M262.8,69.84L270,69.84" style="fill:none;fill-rule:nonzero;stroke:#777;stroke-width:0.75px;"/>
        </g>
        <g transform="matrix(0,1,1,0,388.56,-24.24)">
            <path d="M454.8,69.84L462,69.84" style="fill:none;fill-rule:nonzero;stroke:#777;stroke-width:0.75px;"/>
        </g>
    </g>
    <g class="designers">
        <g transform="matrix(0.999126,-0.0417943,-0.0417943,-0.999126,8.9932,510.937)">
            <path d="M81.512,211.615L259.288,211.615" style="fill:none;fill-rule:nonzero;stroke:#3E37B0;stroke-width:1px;"/>
        </g>
        <g transform="matrix(0.99886,-0.0477442,-0.0477442,-0.99886,10.9273,521.051)">
            <path d="M273.489,220.215L451.311,220.215" style="fill:none;fill-rule:nonzero;stroke:#3E37B0;stroke-width:1px;"/>
        </g>
        <g transform="matrix(0,1,1,0,-133.2,222)">
            <path d="M74.4,204.9C72.91,204.9 71.7,206.12 71.7,207.6C71.7,209.09 72.91,210.3 74.4,210.3C75.89,210.3 77.1,209.09 77.1,207.6C77.1,206.12 75.89,204.9 74.4,204.9" style="fill:none;fill-rule:nonzero;stroke:#3E37B0;stroke-width:1px;"/>
        </g>
        <g transform="matrix(0,1,1,0,50.77,21.97)">
            <path d="M266.4,212.93C264.92,212.93 263.7,214.14 263.7,215.63C263.7,217.11 264.92,218.33 266.4,218.33C267.89,218.33 269.1,217.11 269.1,215.63C269.1,214.14 267.89,212.93 266.4,212.93" style="fill:none;fill-rule:nonzero;stroke:#3E37B0;stroke-width:1px;"/>
        </g>
        <g transform="matrix(0,1,1,0,233.6,-179.2)">
            <path d="M458.4,222.1C456.92,222.1 455.7,223.31 455.7,224.8C455.7,226.28 456.92,227.5 458.4,227.5C459.89,227.5 461.1,226.28 461.1,224.8C461.1,223.31 459.89,222.1 458.4,222.1" style="fill:none;fill-rule:nonzero;stroke:#3E37B0;stroke-width:1px;"/>
        </g>
        <g transform="matrix(0.975198,-0.221332,-0.221332,-0.975198,70.9855,534.234)">
            <path d="M79.157,301.625L261.643,301.625" style="fill:none;fill-rule:nonzero;stroke:#3E37B0;stroke-width:1px;"/>
        </g>
        <g transform="matrix(0.893828,-0.448411,-0.448411,-0.893828,205.093,627.054)">
            <path d="M262.202,371.57L462.598,371.57" style="fill:none;fill-rule:nonzero;stroke:#3E37B0;stroke-width:1px;"/>
        </g>
        <g transform="matrix(0,1,1,0,-205.44,149.76)">
            <path d="M74.4,277.14C72.92,277.14 71.7,278.36 71.7,279.84C71.7,281.33 72.92,282.54 74.4,282.54C75.89,282.54 77.1,281.33 77.1,279.84C77.1,278.36 75.89,277.14 74.4,277.14" style="fill:none;fill-rule:nonzero;stroke:#3E37B0;stroke-width:1px;"/>
        </g>
        <g transform="matrix(0,1,1,0,-57.01,-85.81)">
            <path d="M266.4,320.71C264.91,320.71 263.7,321.92 263.7,323.41C263.7,324.89 264.91,326.11 266.4,326.11C267.88,326.11 269.1,324.89 269.1,323.41C269.1,321.92 267.88,320.71 266.4,320.71" style="fill:none;fill-rule:nonzero;stroke:#3E37B0;stroke-width:1px;"/>
        </g>
        <g transform="matrix(0,1,1,0,38.67,-374.13)">
            <path d="M458.4,417.03C456.91,417.03 455.7,418.24 455.7,419.73C455.7,421.21 456.91,422.43 458.4,422.43C459.88,422.43 461.1,421.21 461.1,419.73C461.1,418.24 459.88,417.03 458.4,417.03" style="fill:none;fill-rule:nonzero;stroke:#3E37B0;stroke-width:1px;"/>
        </g>
        <g transform="matrix(0.943159,-0.332342,-0.332342,-0.943159,89.9213,546.908)">
            <path d="M75.814,241.425L264.986,241.425" style="fill:none;fill-rule:nonzero;stroke:#3E37B0;stroke-width:1px;"/>
        </g>
        <g transform="matrix(0.98988,0.141905,0.141905,-0.98988,-33.4393,449.928)">
            <path d="M272.621,261.49L452.179,261.49" style="fill:none;fill-rule:nonzero;stroke:#3E37B0;stroke-width:1px;"/>
        </g>
        <g transform="matrix(0,1,1,0,-133.2,222)">
            <path d="M74.4,204.9C72.91,204.9 71.7,206.12 71.7,207.6C71.7,209.09 72.91,210.3 74.4,210.3C75.89,210.3 77.1,209.09 77.1,207.6C77.1,206.12 75.89,204.9 74.4,204.9" style="fill:none;fill-rule:nonzero;stroke:#3E37B0;stroke-width:1px;"/>
        </g>
        <g transform="matrix(0,1,1,0,-8.85,-37.65)">
            <path d="M266.4,272.55C264.91,272.55 263.7,273.76 263.7,275.25C263.7,276.73 264.91,277.95 266.4,277.95C267.88,277.95 269.1,276.73 269.1,275.25C269.1,273.76 267.88,272.55 266.4,272.55" style="fill:none;fill-rule:nonzero;stroke:#3E37B0;stroke-width:1px;"/>
        </g>
        <g transform="matrix(0,1,1,0,210.67,-202.13)">
            <path d="M458.4,245.03C456.91,245.03 455.7,246.24 455.7,247.73C455.7,249.21 456.91,250.43 458.4,250.43C459.88,250.43 461.1,249.21 461.1,247.73C461.1,246.24 459.88,245.03 458.4,245.03" style="fill:none;fill-rule:nonzero;stroke:#3E37B0;stroke-width:1px;"/>
        </g>
        <g transform="matrix(0.993626,-0.112727,-0.112727,-0.993626,25.975,521.801)">
            <path d="M80.98,220.79L259.82,220.79" style="fill:none;fill-rule:nonzero;stroke:#3E37B0;stroke-width:1px;"/>
        </g>
        <g transform="matrix(0.989037,-0.147666,-0.147666,-0.989037,40.3001,554.817)">
            <path d="M272.535,246.01L452.265,246.01" style="fill:none;fill-rule:nonzero;stroke:#3E37B0;stroke-width:1px;"/>
        </g>
        <g transform="matrix(0,1,1,0,-135.49,219.71)">
            <path d="M74.4,207.19C72.91,207.19 71.7,208.41 71.7,209.89C71.7,211.38 72.91,212.59 74.4,212.59C75.88,212.59 77.1,211.38 77.1,209.89C77.1,208.41 75.88,207.19 74.4,207.19" style="fill:none;fill-rule:nonzero;stroke:#3E37B0;stroke-width:1px;"/>
        </g>
        <g transform="matrix(0,1,1,0,34.72,5.92)">
            <path d="M266.4,228.98C264.92,228.98 263.7,230.19 263.7,231.68C263.7,233.16 264.92,234.38 266.4,234.38C267.89,234.38 269.1,233.16 269.1,231.68C269.1,230.19 267.89,228.98 266.4,228.98" style="fill:none;fill-rule:nonzero;stroke:#3E37B0;stroke-width:1px;"/>
        </g>
        <g transform="matrix(0,1,1,0,198.05,-214.75)">
            <path d="M458.4,257.65C456.92,257.65 455.7,258.86 455.7,260.35C455.7,261.83 456.92,263.05 458.4,263.05C459.89,263.05 461.1,261.83 461.1,260.35C461.1,258.86 459.89,257.65 458.4,257.65" style="fill:none;fill-rule:nonzero;stroke:#3E37B0;stroke-width:1px;"/>
        </g>
        <g transform="matrix(0.978851,-0.204574,-0.204574,-0.978851,54.87,533.559)">
            <path d="M79.528,250.6L261.272,250.6" style="fill:none;fill-rule:nonzero;stroke:#3E37B0;stroke-width:1px;"/>
        </g>
        <g transform="matrix(0.999555,0.0298291,0.0298291,-0.999555,-7.82696,493.071)">
            <path d="M273.56,267.8L451.24,267.8" style="fill:none;fill-rule:nonzero;stroke:#3E37B0;stroke-width:1px;"/>
        </g>
        <g transform="matrix(0,1,1,0,-156.13,199.07)">
            <path d="M74.4,227.83C72.91,227.83 71.7,229.05 71.7,230.53C71.7,232.02 72.91,233.23 74.4,233.23C75.88,233.23 77.1,232.02 77.1,230.53C77.1,229.05 75.88,227.83 74.4,227.83" style="fill:none;fill-rule:nonzero;stroke:#3E37B0;stroke-width:1px;"/>
        </g>
        <g transform="matrix(0,1,1,0,-4.27,-33.07)">
            <path d="M266.4,267.97C264.92,267.97 263.7,269.18 263.7,270.67C263.7,272.15 264.92,273.37 266.4,273.37C267.89,273.37 269.1,272.15 269.1,270.67C269.1,269.18 267.89,267.97 266.4,267.97" style="fill:none;fill-rule:nonzero;stroke:#3E37B0;stroke-width:1px;"/>
        </g>
        <g transform="matrix(0,1,1,0,193.47,-219.33)">
            <path d="M458.4,262.23C456.91,262.23 455.7,263.44 455.7,264.93C455.7,266.41 456.91,267.63 458.4,267.63C459.88,267.63 461.1,266.41 461.1,264.93C461.1,263.44 459.88,262.23 458.4,262.23" style="fill:none;fill-rule:nonzero;stroke:#3E37B0;stroke-width:1px;"/>
        </g>
    </g>
</svg>
